<svg xmlns="http://www.w3.org/2000/svg" viewBox="0 0 1280.54 123.11"><defs><style>.cls-1,.cls-10,.cls-11,.cls-12,.cls-13,.cls-14,.cls-15,.cls-16,.cls-17,.cls-18,.cls-19,.cls-2,.cls-20,.cls-3,.cls-4,.cls-5,.cls-6,.cls-7,.cls-8,.cls-9{fill:none;stroke:#235b4e;stroke-miterlimit:10;stroke-width:2px;}.cls-2{stroke-dasharray:5.93 5.93;}.cls-3{stroke-dasharray:6.18 6.18;}.cls-4{stroke-dasharray:5.49 5.49;}.cls-5{stroke-dasharray:4 4;}.cls-6{stroke-dasharray:5.14 5.14;}.cls-7{stroke-dasharray:5.89 5.89;}.cls-8{stroke-dasharray:5.66 5.66;}.cls-9{stroke-dasharray:5.32 5.32;}.cls-10{stroke-dasharray:5.59 5.59;}.cls-11{stroke-dasharray:5.96 5.96;}.cls-12{stroke-dasharray:6.14 6.14;}.cls-13{stroke-dasharray:3.96 3.96;}.cls-14{stroke-dasharray:5.71 5.71;}.cls-15{stroke-dasharray:6.31 6.31;}.cls-16{stroke-dasharray:5.9 5.9;}.cls-17{stroke-dasharray:5.98 5.98;}.cls-18{stroke-dasharray:3.83 3.83;}.cls-19{stroke-dasharray:5.97 5.97;}.cls-20{stroke-dasharray:5.64 5.64;}</style></defs><g id="Layer_2" data-name="Layer 2"><g id="line-3"><path class="cls-1" d="M1277.33,122.18a5.9,5.9,0,0,0,2.44-1.71"/><path class="cls-2" d="M1279,115.19c-1.45-1.73-4.39-2.61-7.24-2.15l-25.07,4a9.47,9.47,0,0,1-3.56-.11l-50.72-11.34c-2.72-.61-4.56-2.35-4.56-4.32V93.05"/><path class="cls-1" d="M1188.14,90.11a4.72,4.72,0,0,1,2-2.17l-2.81-1"/><line class="cls-3" x1="1181.52" y1="84.76" x2="1114.86" y2="60.18"/><path class="cls-1" d="M1112,59.11l-2.82-1a4,4,0,0,0,1.26-2.64"/><path class="cls-4" d="M1111.27,50c.4-2,1.06-3.6,2.45-4l14.28.87"/><polyline class="cls-1" points="1130.74 47.03 1133.74 47.21 1131.62 45.09"/><line class="cls-5" x1="1128.81" y1="42.25" x2="1124.58" y2="38"/><polyline class="cls-1" points="1123.17 36.58 1121.06 34.45 1118.06 34.45"/><line class="cls-6" x1="1112.92" y1="34.45" x2="1094.94" y2="34.45"/><polyline class="cls-1" points="1092.37 34.45 1089.37 34.45 1089.37 29.35 1086.38 29.16"/><line class="cls-7" x1="1080.5" y1="28.8" x2="1012.92" y2="24.61"/><polyline class="cls-1" points="1009.98 24.43 1006.99 24.24 1006.99 21.24"/><line class="cls-8" x1="1006.99" y1="15.58" x2="1006.99" y2="7.1"/><polyline class="cls-1" points="1006.99 4.27 1006.99 1.27 1004.07 1.98"/><line class="cls-9" x1="998.9" y1="3.22" x2="980.8" y2="7.6"/><polyline class="cls-1" points="978.21 8.22 975.3 8.93 975.4 11.93"/><line class="cls-10" x1="975.58" y1="17.52" x2="977.7" y2="81.83"/><polyline class="cls-1" points="977.79 84.62 977.89 87.62 974.89 87.72"/><polyline class="cls-11" points="968.94 87.91 816.27 92.82 751.8 64.06"/><polyline class="cls-1" points="749.08 62.84 746.34 61.62 743.61 62.86"/><polyline class="cls-1" points="736.61 66.05 733.88 67.3 731.54 65.42"/><line class="cls-12" x1="726.76" y1="61.57" x2="719.59" y2="55.79"/><polyline class="cls-1" points="717.2 53.87 714.87 51.98 714.87 48.98"/><line class="cls-13" x1="714.87" y1="45.03" x2="714.87" y2="39.09"/><polyline class="cls-1" points="714.87 37.12 714.87 34.12 711.89 33.72"/><polyline class="cls-14" points="706.24 32.96 676.84 29.01 663.68 29.01"/><polyline class="cls-1" points="660.83 29.01 657.83 29.01 656.87 31.86"/><line class="cls-15" x1="654.86" y1="37.84" x2="647.81" y2="58.78"/><polyline class="cls-1" points="646.81 61.78 645.85 64.62 642.91 65.19"/><path class="cls-16" d="M637.11,66.31l-37.86,7.31L466.63,60.24a3.22,3.22,0,0,0-2.66-.66l-4.67.9a2.09,2.09,0,0,0-1.76,1.45,1.82,1.82,0,0,1-1,1.18l-15.83,8.48c-1.1.59-28.88,9.38-29.75,8.54l-1.89-1.81a2.9,2.9,0,0,0-1.22-.67l-29.51-13"/><polyline class="cls-1" points="375.68 63.47 372.93 62.26 374.16 59.53"/><polyline class="cls-1" points="377.66 51.73 378.89 48.99 376.08 50.06"/><polyline class="cls-17" points="370.49 52.18 343.54 62.41 178.71 14.9"/><polyline class="cls-1" points="175.83 14.07 172.95 13.24 173.3 16.22"/><line class="cls-18" x1="173.76" y1="20.02" x2="174.43" y2="25.73"/><polyline class="cls-1" points="174.66 27.63 175.01 30.61 172.06 31.18"/><polyline class="cls-1" points="165.32 30.56 162.56 29.37 159.93 30.81"/><line class="cls-19" x1="154.7" y1="33.69" x2="52.62" y2="89.74"/><polyline class="cls-1" points="50.01 91.18 47.38 92.62 47.15 89.63"/><polyline class="cls-1" points="46.78 84.84 46.55 81.85 44.23 79.95"/><polyline class="cls-20" points="41.15 75.35 18.12 29.97 11.62 25.76 5.8 23.6"/><line class="cls-1" x1="3.16" y1="22.61" x2="0.35" y2="21.56"/></g></g></svg>