<svg xmlns="http://www.w3.org/2000/svg" viewBox="0 0 911 155"><defs><style>.cls-1,.cls-2{stroke:#000;stroke-miterlimit:10;stroke-width:2px;}.cls-2{fill:none;}</style></defs><g id="Layer_2" data-name="Layer 2"><g id="line-3"><circle class="cls-1" cx="37" cy="19" r="18"/><path class="cls-1" d="M73,56A10,10,0,0,0,63,46H11A10,10,0,0,0,1,56v44H19v54H55V100H73Z"/><circle class="cls-1" cx="130" cy="19" r="18"/><path class="cls-1" d="M166,56a10,10,0,0,0-10-10H104A10,10,0,0,0,94,56v44h18v54h36V100h18Z"/><circle class="cls-1" cx="223" cy="19" r="18"/><path class="cls-1" d="M259,56a10,10,0,0,0-10-10H197a10,10,0,0,0-10,10v44h18v54h36V100h18Z"/><circle class="cls-1" cx="316" cy="19" r="18"/><path class="cls-1" d="M352,56a10,10,0,0,0-10-10H290a10,10,0,0,0-10,10v44h18v54h36V100h18Z"/><circle class="cls-1" cx="409" cy="19" r="18"/><path class="cls-1" d="M445,56a10,10,0,0,0-10-10H383a10,10,0,0,0-10,10v44h18v54h36V100h18Z"/><circle class="cls-2" cx="595" cy="19" r="18"/><path class="cls-2" d="M631,56a10,10,0,0,0-10-10H569a10,10,0,0,0-10,10v44h18v54h36V100h18Z"/><circle class="cls-2" cx="688" cy="19" r="18"/><path class="cls-2" d="M724,56a10,10,0,0,0-10-10H662a10,10,0,0,0-10,10v44h18v54h36V100h18Z"/><circle class="cls-2" cx="781" cy="19" r="18"/><path class="cls-2" d="M817,56a10,10,0,0,0-10-10H755a10,10,0,0,0-10,10v44h18v54h36V100h18Z"/><circle class="cls-2" cx="874" cy="19" r="18"/><path class="cls-2" d="M910,56a10,10,0,0,0-10-10H848a10,10,0,0,0-10,10v44h18v54h36V100h18Z"/><path class="cls-2" d="M538,56a10,10,0,0,0-3-7.14V100h3Z"/><circle class="cls-1" cx="502" cy="19" r="18"/><path class="cls-1" d="M528,46H476a10,10,0,0,0-10,10v44h18v54h36V100h15V48.86A10,10,0,0,0,528,46Z"/></g></g></svg>