<svg xmlns="http://www.w3.org/2000/svg" viewBox="0 0 1280.52 126.36"><defs><style>.cls-1{fill:none;stroke:#000;stroke-miterlimit:10;stroke-width:2px;stroke-dasharray:6 8;}</style></defs><g id="Layer_2" data-name="Layer 2"><g id="line-3"><polyline class="cls-1" points="1280.35 35.23 1216.04 23.47 1197.93 20.45 1179.83 32.53 1119.47 38.58 1101.37 38.58 1071.19 65.77 1004.81 47.64 986.7 56.71 986.7 47.64 926.35 56.71 914.28 38.58 835.83 71.82 841.86 123.19 738.4 1.36 678.05 46.69 631.12 24.23 593.56 37.63 497 34.61 478.89 22.52 430.61 34.61 430.61 22.52 412.5 10.43 370.26 25.54 346.12 16.48 303.87 16.48 273.7 37.63 249.56 31.58 201.28 64.83 62.47 98.06 0.34 75.23"/></g></g></svg>