<svg xmlns="http://www.w3.org/2000/svg" viewBox="0 0 728.12 123.1"><defs><style>.cls-1,.cls-10,.cls-11,.cls-12,.cls-13,.cls-14,.cls-15,.cls-2,.cls-3,.cls-4,.cls-5,.cls-6,.cls-7,.cls-8,.cls-9{fill:none;stroke:#000;stroke-miterlimit:10;stroke-width:2px;}.cls-2{stroke-dasharray:5.96 7.94;}.cls-3{stroke-dasharray:5.58 7.44;}.cls-4{stroke-dasharray:4.83 6.44;}.cls-5{stroke-dasharray:5.58 7.44;}.cls-6{stroke-dasharray:6.32 8.43;}.cls-7{stroke-dasharray:4.63 6.17;}.cls-8{stroke-dasharray:4.79 6.38;}.cls-9{stroke-dasharray:5.6 7.46;}.cls-10{stroke-dasharray:6.04 8.06;}.cls-11{stroke-dasharray:5.3 7.07;}.cls-12{stroke-dasharray:3.24 4.32;}.cls-13{stroke-dasharray:6.63 8.84;}.cls-14{stroke-dasharray:5.31 7.08;}.cls-15{stroke-dasharray:5.35 7.14;}</style></defs><g id="Layer_2" data-name="Layer 2"><g id="line-3"><path class="cls-1" d="M724.87,122.16a6.47,6.47,0,0,0,2.51-1.6"/><path class="cls-2" d="M725.31,114.07a10,10,0,0,0-6.34-1l-26.81,4a11,11,0,0,1-3.8-.1l-54.2-11.35c-2.91-.61-4.88-2.35-4.88-4.32V93.93"/><path class="cls-1" d="M629.59,90a4.83,4.83,0,0,1,2.09-2.09l-2.84-1"/><line class="cls-3" x1="621.81" y1="84.51" x2="551.48" y2="60.24"/><path class="cls-1" d="M548,59l-2.84-1a3.87,3.87,0,0,0,1.34-2.6"/><path class="cls-4" d="M547.61,49.11c.45-1.56,1.14-2.79,2.41-3.13l15.17.86"/><polyline class="cls-1" points="568.41 47.02 571.41 47.2 569.22 45.14"/><polyline class="cls-5" points="563.81 40.04 557.86 34.43 530.71 34.43"/><polyline class="cls-1" points="526.99 34.43 523.99 34.43 523.99 29.33 521 29.15"/><line class="cls-6" x1="512.58" y1="28.67" x2="443.15" y2="24.64"/><polyline class="cls-1" points="438.94 24.4 435.94 24.22 435.94 21.22"/><line class="cls-7" x1="435.94" y1="15.05" x2="435.94" y2="7.34"/><polyline class="cls-1" points="435.94 4.25 435.94 1.25 433.02 1.91"/><line class="cls-8" x1="426.79" y1="3.32" x2="408.12" y2="7.54"/><polyline class="cls-1" points="405 8.25 402.08 8.91 402.18 11.91"/><line class="cls-9" x1="402.44" y1="19.36" x2="404.61" y2="80.87"/><polyline class="cls-1" points="404.74 84.6 404.85 87.6 401.85 87.69"/><polyline class="cls-10" points="393.79 87.93 232.11 92.8 163.86 64.31"/><polyline class="cls-1" points="160.15 62.76 157.38 61.6 154.62 62.78"/><polyline class="cls-1" points="146.82 66.1 144.06 67.28 141.67 65.47"/><line class="cls-11" x1="136.02" y1="61.22" x2="128.96" y2="55.9"/><polyline class="cls-1" points="126.14 53.77 123.74 51.97 123.74 48.97"/><line class="cls-12" x1="123.74" y1="44.65" x2="123.74" y2="39.26"/><polyline class="cls-1" points="123.74 37.1 123.74 34.1 120.77 33.72"/><polyline class="cls-13" points="111.99 32.62 83.1 28.99 70.21 28.99"/><polyline class="cls-1" points="65.78 28.99 62.78 28.99 61.77 31.82"/><line class="cls-14" x1="59.38" y1="38.47" x2="52.19" y2="58.45"/><polyline class="cls-1" points="51 61.78 49.98 64.6 47.03 65.13"/><line class="cls-15" x1="40.01" y1="66.4" x2="6.64" y2="72.43"/><line class="cls-1" x1="3.13" y1="73.07" x2="0.18" y2="73.6"/></g></g></svg>