<svg xmlns="http://www.w3.org/2000/svg" viewBox="0 0 1280.54 123.11"><defs><style>.cls-1,.cls-10,.cls-11,.cls-12,.cls-13,.cls-14,.cls-15,.cls-16,.cls-17,.cls-18,.cls-19,.cls-2,.cls-20,.cls-3,.cls-4,.cls-5,.cls-6,.cls-7,.cls-8,.cls-9{fill:none;stroke:#000;stroke-miterlimit:10;stroke-width:2px;}.cls-2{stroke-dasharray:6.38 8.51;}.cls-3{stroke-dasharray:6.18 8.24;}.cls-4{stroke-dasharray:7.49 9.99;}.cls-5{stroke-dasharray:3.27 4.36;}.cls-6{stroke-dasharray:7.01 9.34;}.cls-7{stroke-dasharray:5.89 7.85;}.cls-8{stroke-dasharray:4.63 6.17;}.cls-9{stroke-dasharray:7.25 9.67;}.cls-10{stroke-dasharray:5.59 7.46;}.cls-11{stroke-dasharray:6.01 8.01;}.cls-12{stroke-dasharray:5.02 6.7;}.cls-13{stroke-dasharray:3.24 4.32;}.cls-14{stroke-dasharray:6.17 8.22;}.cls-15{stroke-dasharray:5.26 7.02;}.cls-16{stroke-dasharray:6.08 8.1;}.cls-17{stroke-dasharray:6.16 8.21;}.cls-18{stroke-dasharray:3.13 4.18;}.cls-19{stroke-dasharray:6.27 8.36;}.cls-20{stroke-dasharray:5.64 7.52;}</style></defs><g id="Layer_2" data-name="Layer 2"><g id="line-3"><path class="cls-1" d="M1277.33,122.18a5.9,5.9,0,0,0,2.44-1.71"/><path class="cls-2" d="M1277,113.68a9.13,9.13,0,0,0-5.18-.64l-25.07,4a9.47,9.47,0,0,1-3.56-.11l-50.72-11.34c-2.72-.61-4.56-2.35-4.56-4.32v-7"/><path class="cls-1" d="M1188.14,90.11a4.72,4.72,0,0,1,2-2.17l-2.81-1"/><line class="cls-3" x1="1179.59" y1="84.05" x2="1115.83" y2="60.53"/><path class="cls-1" d="M1112,59.11l-2.82-1a4,4,0,0,0,1.26-2.64"/><path class="cls-4" d="M1113.33,46.16a1.68,1.68,0,0,1,.39-.16l12,.73"/><polyline class="cls-1" points="1130.74 47.03 1133.74 47.21 1131.62 45.09"/><line class="cls-5" x1="1128.55" y1="41.99" x2="1124.71" y2="38.13"/><polyline class="cls-1" points="1123.17 36.58 1121.06 34.45 1118.06 34.45"/><line class="cls-6" x1="1108.72" y1="34.45" x2="1097.04" y2="34.45"/><polyline class="cls-1" points="1092.37 34.45 1089.37 34.45 1089.37 29.35 1086.38 29.16"/><line class="cls-7" x1="1078.54" y1="28.68" x2="1013.9" y2="24.67"/><polyline class="cls-1" points="1009.98 24.43 1006.99 24.24 1006.99 21.24"/><line class="cls-8" x1="1006.99" y1="15.07" x2="1006.99" y2="7.36"/><polyline class="cls-1" points="1006.99 4.27 1006.99 1.27 1004.07 1.98"/><line class="cls-9" x1="994.67" y1="4.25" x2="982.91" y2="7.09"/><polyline class="cls-1" points="978.21 8.22 975.3 8.93 975.4 11.93"/><line class="cls-10" x1="975.64" y1="19.38" x2="977.67" y2="80.89"/><polyline class="cls-1" points="977.79 84.62 977.89 87.62 974.89 87.72"/><polyline class="cls-11" points="966.89 87.97 816.27 92.82 752.73 64.47"/><polyline class="cls-1" points="749.08 62.84 746.34 61.62 743.61 62.86"/><polyline class="cls-1" points="736.61 66.05 733.88 67.3 731.54 65.42"/><line class="cls-12" x1="726.33" y1="61.22" x2="719.81" y2="55.97"/><polyline class="cls-1" points="717.2 53.87 714.87 51.98 714.87 48.98"/><line class="cls-13" x1="714.87" y1="44.67" x2="714.87" y2="39.27"/><polyline class="cls-1" points="714.87 37.12 714.87 34.12 711.89 33.72"/><polyline class="cls-14" points="703.75 32.62 676.84 29.01 664.94 29.01"/><polyline class="cls-1" points="660.83 29.01 657.83 29.01 656.87 31.86"/><line class="cls-15" x1="654.64" y1="38.5" x2="647.93" y2="58.45"/><polyline class="cls-1" points="646.81 61.78 645.85 64.62 642.91 65.19"/><path class="cls-16" d="M635,66.73l-35.7,6.89L466.63,60.24a3.22,3.22,0,0,0-2.66-.66l-4.67.9a2.09,2.09,0,0,0-1.76,1.45,1.82,1.82,0,0,1-1,1.18l-15.83,8.48c-1.1.59-28.88,9.38-29.75,8.54l-1.89-1.81a2.9,2.9,0,0,0-1.22-.67L379.39,65.1"/><polyline class="cls-1" points="375.68 63.47 372.93 62.26 374.16 59.53"/><polyline class="cls-1" points="377.66 51.73 378.89 48.99 376.08 50.06"/><polyline class="cls-17" points="368.41 52.97 343.54 62.41 179.78 15.21"/><polyline class="cls-1" points="175.83 14.07 172.95 13.24 173.3 16.22"/><line class="cls-18" x1="173.8" y1="20.37" x2="174.41" y2="25.55"/><polyline class="cls-1" points="174.66 27.63 175.01 30.61 172.06 31.18"/><polyline class="cls-1" points="165.32 30.56 162.56 29.37 159.93 30.81"/><line class="cls-19" x1="152.61" y1="34.84" x2="53.67" y2="89.16"/><polyline class="cls-1" points="50.01 91.18 47.38 92.62 47.15 89.63"/><polyline class="cls-1" points="46.78 84.84 46.55 81.85 44.23 79.95"/><polyline class="cls-20" points="40.3 73.67 18.12 29.97 11.62 25.76 6.68 23.92"/><line class="cls-1" x1="3.16" y1="22.61" x2="0.35" y2="21.56"/></g></g></svg>