<svg xmlns="http://www.w3.org/2000/svg" viewBox="0 0 1280.95 92.19"><defs><style>.cls-1{fill:none;stroke:#000;stroke-miterlimit:10;stroke-width:2px;stroke-dasharray:6 8;}</style></defs><g id="Layer_2" data-name="Layer 2"><g id="line-3"><polyline class="cls-1" points="1280.85 16.87 1250.58 19.9 1220.3 13.85 1202.13 13.85 1190.02 19.9 1159.74 1.76 1159.74 16.87 1147.63 16.87 1147.63 25.94 1147.63 41.05 1087.08 56.16 1062.86 65.22 1062.86 80.33 882.19 43.77 839.8 43.77 833.75 61.9 770.85 56.99 752.69 66.06 673.97 50.95 595.25 23.75 546.8 35.84 528.64 20.73 498.36 32.81 468.08 23.75 462.03 32.81 431.75 41.88 407.53 38.86 389.36 47.92 365.14 41.88 365.14 35.84 280.06 13.62 262.2 11.66 237.98 20.73 201.65 47.92 183.48 47.92 42.83 58.06 12.56 73.17 12.56 85.25 0.45 91.3"/></g></g></svg>